<?xml version="1.0"?>
<svg version="1.1" xmlns="http://www.w3.org/2000/svg" xmlns:xlink="http://www.w3.org/1999/xlink" width="640" height="480">
    <desc iVinci="yes" version="4.6" gridStep="20" showGrid="no" snapToGrid="no" codePlatform="0"/>
    <g id="Layer1" name="Layer 1" opacity="1">
        <g id="Shape1">
            <desc shapeID="1" type="0" basicInfo-basicType="0" basicInfo-roundedRectRadius="12" basicInfo-polygonSides="6" basicInfo-starPoints="5" bounding="rect(-126.5,-56,253,112)" text="" font-familyName="Helvetica" font-pixelSize="20" font-bold="0" font-underline="0" font-alignment="1" strokeStyle="0" markerStart="0" markerEnd="0" shadowEnabled="0" shadowOffsetX="0" shadowOffsetY="2" shadowBlur="4" shadowOpacity="160" blurEnabled="0" blurRadius="4" transform="matrix(0.690005,0,0,0.92771,134.837,135.452)" pers-center="0,0" pers-size="0,0" pers-start="0,0" pers-end="0,0" locked="0" mesh="" flag=""/>
            <path id="shapePath1" d="M47.5511,94.6325 C47.5511,88.4842 51.2582,83.5 55.8312,83.5 L213.842,83.5 C218.415,83.5 222.122,88.4842 222.122,94.6325 L222.122,122.981 L208.289,122.981 L208.289,151.148 L222.122,151.148 L222.122,176.271 C222.122,182.419 218.415,187.404 213.842,187.404 L55.8312,187.404 C51.2582,187.404 47.5511,182.419 47.5511,176.271 L47.5511,94.6325 Z" style="stroke:#323232;stroke-opacity:1;stroke-width:1;stroke-linejoin:miter;stroke-miterlimit:2;stroke-linecap:round;fill-rule:evenodd;fill:#cbdfe9;fill-opacity:1;"/>
        </g>
        <g id="Shape2">
            <desc shapeID="2" type="2" basicInfo-basicType="0" basicInfo-roundedRectRadius="12" basicInfo-polygonSides="6" basicInfo-starPoints="5" bounding="rect(-79.1802,-17,158.36,34)" text="inserisciLibri" font-familyName="Helvetica" font-pixelSize="20" font-bold="0" font-underline="0" font-alignment="1" strokeStyle="0" markerStart="0" markerEnd="0" shadowEnabled="0" shadowOffsetX="0" shadowOffsetY="2" shadowBlur="4" shadowOpacity="160" blurEnabled="0" blurRadius="4" transform="matrix(1,0,0,1,127.093,137.058)" pers-center="0,0" pers-size="0,0" pers-start="0,0" pers-end="0,0" locked="0" mesh="" flag=""/>
            <path id="shapePath2" d="M73.4131,132.039 L75.2002,132.039 L75.2002,142.449 L73.4131,142.449 L73.4131,132.039 M73.4131,128.103 L75.2002,128.103 L75.2002,130.095 L73.4131,130.095 L73.4131,128.103 M77.8506,131.99 L79.5206,131.99 L79.5206,133.474 C80.0154,132.862 80.5394,132.423 81.0928,132.156 C81.6462,131.889 82.2614,131.755 82.9385,131.755 C84.4229,131.755 85.4255,132.273 85.9463,133.308 C86.2328,133.875 86.376,134.685 86.376,135.74 L86.376,142.449 L84.5889,142.449 L84.5889,135.857 C84.5889,135.219 84.4945,134.705 84.3057,134.314 C83.9932,133.663 83.4268,133.338 82.6065,133.338 C82.1898,133.338 81.848,133.38 81.5811,133.464 C81.0993,133.608 80.6761,133.894 80.3116,134.324 C80.0186,134.669 79.8282,135.025 79.7403,135.393 C79.6524,135.761 79.6084,136.287 79.6084,136.97 L79.6084,142.449 L77.8506,142.449 L77.8506,131.99 M90.0049,139.168 C90.057,139.754 90.2035,140.203 90.4444,140.515 C90.8871,141.082 91.6553,141.365 92.7491,141.365 C93.4001,141.365 93.973,141.223 94.4678,140.94 C94.9626,140.657 95.21,140.219 95.21,139.627 C95.21,139.177 95.0114,138.836 94.6143,138.601 C94.3604,138.458 93.8591,138.292 93.1104,138.103 L91.7139,137.752 C90.822,137.53 90.1644,137.283 89.7413,137.009 C88.9861,136.534 88.6084,135.877 88.6084,135.037 C88.6084,134.047 88.9649,133.246 89.6778,132.634 C90.3907,132.022 91.3493,131.716 92.5538,131.716 C94.1293,131.716 95.2653,132.179 95.962,133.103 C96.3982,133.689 96.6097,134.321 96.5967,134.998 L94.9366,134.998 C94.904,134.601 94.764,134.239 94.5166,133.914 C94.113,133.451 93.4131,133.22 92.417,133.22 C91.753,133.22 91.25,133.347 90.9082,133.601 C90.5665,133.855 90.3956,134.19 90.3956,134.607 C90.3956,135.063 90.6202,135.427 91.0694,135.701 C91.3298,135.864 91.7139,136.007 92.2217,136.13 L93.3838,136.414 C94.6469,136.72 95.4932,137.016 95.9229,137.302 C96.6065,137.752 96.9483,138.458 96.9483,139.422 C96.9483,140.352 96.5951,141.157 95.8887,141.834 C95.1823,142.511 94.1065,142.849 92.6612,142.849 C91.1052,142.849 90.0033,142.496 89.3555,141.79 C88.7077,141.083 88.3611,140.209 88.3155,139.168 L90.0049,139.168 M105.474,132.278 C106.17,132.626 106.701,133.077 107.065,133.63 C107.417,134.158 107.651,134.773 107.769,135.476 C107.873,135.958 107.925,136.726 107.925,137.781 L100.259,137.781 C100.291,138.842 100.542,139.693 101.011,140.335 C101.48,140.976 102.205,141.297 103.189,141.297 C104.106,141.297 104.839,140.994 105.386,140.388 C105.698,140.037 105.92,139.63 106.05,139.168 L107.778,139.168 C107.733,139.552 107.581,139.98 107.324,140.452 C107.067,140.924 106.779,141.31 106.46,141.609 C105.926,142.13 105.265,142.481 104.478,142.664 C104.054,142.768 103.576,142.82 103.042,142.82 C101.74,142.82 100.636,142.346 99.7315,141.399 C98.8265,140.452 98.3741,139.125 98.3741,137.42 C98.3741,135.74 98.8298,134.376 99.7413,133.328 C100.653,132.28 101.844,131.755 103.315,131.755 C104.058,131.755 104.777,131.93 105.474,132.278 M106.118,136.384 C106.047,135.623 105.881,135.014 105.62,134.558 C105.138,133.712 104.334,133.289 103.208,133.289 C102.401,133.289 101.724,133.58 101.177,134.163 C100.63,134.745 100.34,135.486 100.308,136.384 L106.118,136.384 M110.118,131.99 L111.788,131.99 L111.788,133.797 C111.925,133.445 112.26,133.017 112.794,132.512 C113.328,132.008 113.943,131.755 114.64,131.755 C114.672,131.755 114.728,131.759 114.806,131.765 C114.884,131.772 115.017,131.785 115.206,131.804 L115.206,133.66 C115.102,133.64 115.006,133.627 114.918,133.621 C114.83,133.614 114.734,133.611 114.63,133.611 C113.745,133.611 113.064,133.896 112.589,134.465 C112.114,135.035 111.876,135.691 111.876,136.433 L111.876,142.449 L110.118,142.449 L110.118,131.99 M116.726,132.039 L118.513,132.039 L118.513,142.449 L116.726,142.449 L116.726,132.039 M116.726,128.103 L118.513,128.103 L118.513,130.095 L116.726,130.095 L116.726,128.103 M122.208,139.168 C122.26,139.754 122.407,140.203 122.648,140.515 C123.09,141.082 123.858,141.365 124.952,141.365 C125.603,141.365 126.176,141.223 126.671,140.94 C127.166,140.657 127.413,140.219 127.413,139.627 C127.413,139.177 127.215,138.836 126.817,138.601 C126.564,138.458 126.062,138.292 125.314,138.103 L123.917,137.752 C123.025,137.53 122.368,137.283 121.944,137.009 C121.189,136.534 120.812,135.877 120.812,135.037 C120.812,134.047 121.168,133.246 121.881,132.634 C122.594,132.022 123.552,131.716 124.757,131.716 C126.332,131.716 127.468,132.179 128.165,133.103 C128.601,133.689 128.813,134.321 128.8,134.998 L127.14,134.998 C127.107,134.601 126.967,134.239 126.72,133.914 C126.316,133.451 125.616,133.22 124.62,133.22 C123.956,133.22 123.453,133.347 123.111,133.601 C122.77,133.855 122.599,134.19 122.599,134.607 C122.599,135.063 122.823,135.427 123.273,135.701 C123.533,135.864 123.917,136.007 124.425,136.13 L125.587,136.414 C126.85,136.72 127.696,137.016 128.126,137.302 C128.81,137.752 129.151,138.458 129.151,139.422 C129.151,140.352 128.798,141.157 128.092,141.834 C127.385,142.511 126.31,142.849 124.864,142.849 C123.308,142.849 122.206,142.496 121.559,141.79 C120.911,141.083 120.564,140.209 120.519,139.168 L122.208,139.168 M138.072,132.547 C138.811,133.119 139.256,134.106 139.405,135.505 L137.696,135.505 C137.592,134.861 137.355,134.325 136.983,133.899 C136.612,133.473 136.017,133.259 135.196,133.259 C134.077,133.259 133.276,133.806 132.794,134.9 C132.481,135.61 132.325,136.485 132.325,137.527 C132.325,138.575 132.547,139.457 132.989,140.173 C133.432,140.89 134.129,141.248 135.079,141.248 C135.808,141.248 136.386,141.025 136.813,140.579 C137.239,140.133 137.534,139.522 137.696,138.748 L139.405,138.748 C139.21,140.134 138.722,141.148 137.94,141.79 C137.159,142.431 136.16,142.752 134.942,142.752 C133.575,142.752 132.485,142.252 131.671,141.253 C130.857,140.253 130.45,139.005 130.45,137.507 C130.45,135.672 130.896,134.242 131.788,133.22 C132.68,132.198 133.816,131.687 135.196,131.687 C136.375,131.687 137.333,131.974 138.072,132.547 M141.163,132.039 L142.95,132.039 L142.95,142.449 L141.163,142.449 L141.163,132.039 M141.163,128.103 L142.95,128.103 L142.95,130.095 L141.163,130.095 L141.163,128.103 M145.835,128.103 L147.778,128.103 L147.778,140.74 L155.044,140.74 L155.044,142.449 L145.835,142.449 L145.835,128.103 M156.71,132.039 L158.497,132.039 L158.497,142.449 L156.71,142.449 L156.71,132.039 M156.71,128.103 L158.497,128.103 L158.497,130.095 L156.71,130.095 L156.71,128.103 M161.011,128.054 L162.72,128.054 L162.72,133.259 C163.104,132.758 163.563,132.376 164.097,132.112 C164.631,131.848 165.21,131.716 165.835,131.716 C167.137,131.716 168.193,132.164 169.004,133.059 C169.814,133.954 170.22,135.274 170.22,137.019 C170.22,138.673 169.819,140.047 169.019,141.14 C168.218,142.234 167.108,142.781 165.689,142.781 C164.894,142.781 164.224,142.589 163.677,142.205 C163.351,141.977 163.003,141.612 162.632,141.111 L162.632,142.449 L161.011,142.449 L161.011,128.054 M167.715,140.095 C168.187,139.34 168.423,138.344 168.423,137.107 C168.423,136.007 168.187,135.095 167.715,134.373 C167.243,133.65 166.548,133.289 165.63,133.289 C164.829,133.289 164.128,133.585 163.525,134.177 C162.923,134.77 162.622,135.746 162.622,137.107 C162.622,138.09 162.746,138.888 162.993,139.5 C163.455,140.652 164.318,141.228 165.581,141.228 C166.532,141.228 167.243,140.851 167.715,140.095 M172.306,131.99 L173.976,131.99 L173.976,133.797 C174.112,133.445 174.448,133.017 174.981,132.512 C175.515,132.008 176.131,131.755 176.827,131.755 C176.86,131.755 176.915,131.759 176.993,131.765 C177.071,131.772 177.205,131.785 177.394,131.804 L177.394,133.66 C177.289,133.64 177.193,133.627 177.106,133.621 C177.018,133.614 176.922,133.611 176.817,133.611 C175.932,133.611 175.252,133.896 174.776,134.465 C174.301,135.035 174.064,135.691 174.064,136.433 L174.064,142.449 L172.306,142.449 L172.306,131.99 M178.913,132.039 L180.7,132.039 L180.7,142.449 L178.913,142.449 L178.913,132.039 M178.913,128.103 L180.7,128.103 L180.7,130.095 L178.913,130.095 L178.913,128.103 Z" style="stroke:none;fill-rule:nonzero;fill:#000000;fill-opacity:1;"/>
        </g>
        <g id="Shape3">
            <desc shapeID="3" type="0" basicInfo-basicType="0" basicInfo-roundedRectRadius="12" basicInfo-polygonSides="6" basicInfo-starPoints="5" bounding="rect(-113.38,-35.1817,226.76,70.3635)" text="" font-familyName="Helvetica" font-pixelSize="20" font-bold="0" font-underline="0" font-alignment="1" strokeStyle="0" markerStart="0" markerEnd="0" shadowEnabled="0" shadowOffsetX="0" shadowOffsetY="2" shadowBlur="4" shadowOpacity="160" blurEnabled="0" blurRadius="4" transform="matrix(0.560256,0,0,1,310.436,75.7989)" pers-center="0,0" pers-size="0,0" pers-start="0,0" pers-end="0,0" locked="0" mesh="" flag=""/>
            <path id="shapePath3" d="M260.8,40.6172 L373.958,40.6172 L373.958,110.981 L260.8,110.981 L260.8,88.9444 L246.914,88.9444 L246.914,60.8886 L260.8,60.8886 L260.8,40.6172 Z" style="stroke:#000000;stroke-opacity:1;stroke-width:1;stroke-linejoin:miter;stroke-miterlimit:2;stroke-linecap:round;fill-rule:evenodd;fill:#faffc5;fill-opacity:1;"/>
        </g>
        <g id="Shape4">
            <desc shapeID="4" type="2" basicInfo-basicType="0" basicInfo-roundedRectRadius="12" basicInfo-polygonSides="6" basicInfo-starPoints="5" bounding="rect(-38.7424,-19.3712,77.4848,38.7424)" text="LibroDbFinto" font-familyName="Helvetica" font-pixelSize="16" font-bold="0" font-underline="0" font-alignment="1" strokeStyle="0" markerStart="0" markerEnd="0" shadowEnabled="0" shadowOffsetX="0" shadowOffsetY="2" shadowBlur="4" shadowOpacity="160" blurEnabled="0" blurRadius="4" transform="matrix(1,0,0,1,317.345,75.9437)" pers-center="0,0" pers-size="0,0" pers-start="0,0" pers-end="0,0" locked="0" mesh="" flag=""/>
            <path id="shapePath4" d="M272.814,68.4202 L274.368,68.4202 L274.368,78.5296 L280.181,78.5296 L280.181,79.8968 L272.814,79.8968 L272.814,68.4202 M281.517,71.5687 L282.946,71.5687 L282.946,79.8968 L281.517,79.8968 L281.517,71.5687 M281.517,68.4202 L282.946,68.4202 L282.946,70.014 L281.517,70.014 L281.517,68.4202 M284.954,68.3812 L286.321,68.3812 L286.321,72.5452 C286.629,72.1442 286.996,71.8382 287.423,71.6273 C287.85,71.4163 288.314,71.3109 288.814,71.3109 C289.855,71.3109 290.7,71.6689 291.349,72.3851 C291.997,73.1012 292.321,74.1572 292.321,75.553 C292.321,76.876 292.001,77.9749 291.361,78.8499 C290.72,79.7249 289.832,80.1624 288.696,80.1624 C288.061,80.1624 287.525,80.0088 287.087,79.7015 C286.827,79.5192 286.548,79.2275 286.251,78.8265 L286.251,79.8968 L284.954,79.8968 L284.954,68.3812 M290.318,78.014 C290.695,77.4098 290.884,76.6129 290.884,75.6234 C290.884,74.7431 290.695,74.014 290.318,73.4359 C289.94,72.8577 289.384,72.5687 288.65,72.5687 C288.009,72.5687 287.448,72.8056 286.966,73.2796 C286.484,73.7536 286.243,74.5348 286.243,75.6234 C286.243,76.4098 286.342,77.0478 286.54,77.5374 C286.91,78.4593 287.6,78.9202 288.611,78.9202 C289.371,78.9202 289.94,78.6181 290.318,78.014 M293.993,71.5296 L295.329,71.5296 L295.329,72.9749 C295.439,72.6937 295.707,72.3512 296.134,71.9476 C296.561,71.5439 297.053,71.3421 297.611,71.3421 C297.637,71.3421 297.681,71.3447 297.743,71.3499 C297.806,71.3551 297.913,71.3655 298.064,71.3812 L298.064,72.8655 C297.98,72.8499 297.903,72.8395 297.833,72.8343 C297.763,72.8291 297.686,72.8265 297.603,72.8265 C296.894,72.8265 296.35,73.0544 295.97,73.5101 C295.59,73.9658 295.4,74.4905 295.4,75.0843 L295.4,79.8968 L293.993,79.8968 L293.993,71.5296 M304.521,77.932 C304.867,77.2262 305.04,76.4411 305.04,75.5765 C305.04,74.7952 304.915,74.1598 304.665,73.6702 C304.269,72.8994 303.587,72.514 302.618,72.514 C301.759,72.514 301.134,72.8421 300.743,73.4984 C300.353,74.1546 300.157,74.9463 300.157,75.8734 C300.157,76.764 300.353,77.5062 300.743,78.0999 C301.134,78.6937 301.754,78.9905 302.603,78.9905 C303.535,78.9905 304.174,78.6377 304.521,77.932 M305.392,72.3655 C306.137,73.0843 306.509,74.1416 306.509,75.5374 C306.509,76.8864 306.181,78.001 305.525,78.8812 C304.868,79.7614 303.85,80.2015 302.47,80.2015 C301.319,80.2015 300.405,79.8122 299.728,79.0335 C299.051,78.2549 298.712,77.2093 298.712,75.8968 C298.712,74.4905 299.069,73.3708 299.782,72.5374 C300.496,71.7041 301.454,71.2874 302.657,71.2874 C303.736,71.2874 304.647,71.6468 305.392,72.3655 M312.767,78.5687 C313.293,78.5687 313.725,78.514 314.064,78.4046 C314.668,78.2015 315.163,77.8109 315.548,77.2327 C315.855,76.7692 316.077,76.1754 316.212,75.4515 C316.29,75.0192 316.329,74.6181 316.329,74.2484 C316.329,72.8265 316.047,71.7223 315.482,70.9359 C314.917,70.1494 314.006,69.7562 312.751,69.7562 L309.993,69.7562 L309.993,78.5687 L312.767,78.5687 M308.431,68.4202 L313.079,68.4202 C314.657,68.4202 315.881,68.9801 316.751,70.0999 C317.527,71.1103 317.915,72.4046 317.915,73.9827 C317.915,75.2015 317.686,76.303 317.228,77.2874 C316.42,79.027 315.032,79.8968 313.064,79.8968 L308.431,79.8968 L308.431,68.4202 M319.611,68.3812 L320.978,68.3812 L320.978,72.5452 C321.285,72.1442 321.652,71.8382 322.079,71.6273 C322.506,71.4163 322.97,71.3109 323.47,71.3109 C324.512,71.3109 325.357,71.6689 326.005,72.3851 C326.653,73.1012 326.978,74.1572 326.978,75.553 C326.978,76.876 326.657,77.9749 326.017,78.8499 C325.376,79.7249 324.488,80.1624 323.353,80.1624 C322.717,80.1624 322.181,80.0088 321.743,79.7015 C321.483,79.5192 321.204,79.2275 320.907,78.8265 L320.907,79.8968 L319.611,79.8968 L319.611,68.3812 M324.974,78.014 C325.351,77.4098 325.54,76.6129 325.54,75.6234 C325.54,74.7431 325.351,74.014 324.974,73.4359 C324.596,72.8577 324.04,72.5687 323.306,72.5687 C322.665,72.5687 322.104,72.8056 321.622,73.2796 C321.14,73.7536 320.9,74.5348 320.9,75.6234 C320.9,76.4098 320.999,77.0478 321.196,77.5374 C321.566,78.4593 322.256,78.9202 323.267,78.9202 C324.027,78.9202 324.596,78.6181 324.974,78.014 M328.946,68.4202 L336.907,68.4202 L336.907,69.8265 L330.501,69.8265 L330.501,73.3109 L336.134,73.3109 L336.134,74.678 L330.501,74.678 L330.501,79.8968 L328.946,79.8968 L328.946,68.4202 M338.376,71.5687 L339.806,71.5687 L339.806,79.8968 L338.376,79.8968 L338.376,71.5687 M338.376,68.4202 L339.806,68.4202 L339.806,70.014 L338.376,70.014 L338.376,68.4202 M341.923,71.5296 L343.259,71.5296 L343.259,72.7171 C343.655,72.2275 344.074,71.876 344.517,71.6624 C344.959,71.4489 345.452,71.3421 345.993,71.3421 C347.181,71.3421 347.983,71.7562 348.4,72.5843 C348.629,73.0374 348.743,73.6859 348.743,74.5296 L348.743,79.8968 L347.314,79.8968 L347.314,74.6234 C347.314,74.1129 347.238,73.7015 347.087,73.389 C346.837,72.8681 346.384,72.6077 345.728,72.6077 C345.394,72.6077 345.121,72.6416 344.907,72.7093 C344.522,72.8239 344.183,73.053 343.892,73.3968 C343.657,73.6728 343.505,73.958 343.435,74.2523 C343.364,74.5465 343.329,74.9671 343.329,75.514 L343.329,79.8968 L341.923,79.8968 L341.923,71.5296 M351.095,69.1937 L352.517,69.1937 L352.517,71.5296 L353.853,71.5296 L353.853,72.678 L352.517,72.678 L352.517,78.139 C352.517,78.4306 352.616,78.626 352.814,78.7249 C352.923,78.7822 353.105,78.8109 353.361,78.8109 C353.428,78.8109 353.501,78.8096 353.579,78.807 C353.657,78.8044 353.749,78.7978 353.853,78.7874 L353.853,79.8968 C353.691,79.9437 353.523,79.9775 353.349,79.9984 C353.174,80.0192 352.986,80.0296 352.782,80.0296 C352.126,80.0296 351.681,79.8616 351.446,79.5257 C351.212,79.1898 351.095,78.7536 351.095,78.2171 L351.095,72.678 L349.962,72.678 L349.962,71.5296 L351.095,71.5296 L351.095,69.1937 M360.489,77.932 C360.836,77.2262 361.009,76.4411 361.009,75.5765 C361.009,74.7952 360.884,74.1598 360.634,73.6702 C360.238,72.8994 359.556,72.514 358.587,72.514 C357.728,72.514 357.103,72.8421 356.712,73.4984 C356.321,74.1546 356.126,74.9463 356.126,75.8734 C356.126,76.764 356.321,77.5062 356.712,78.0999 C357.103,78.6937 357.722,78.9905 358.571,78.9905 C359.504,78.9905 360.143,78.6377 360.489,77.932 M361.361,72.3655 C362.105,73.0843 362.478,74.1416 362.478,75.5374 C362.478,76.8864 362.15,78.001 361.493,78.8812 C360.837,79.7614 359.819,80.2015 358.439,80.2015 C357.288,80.2015 356.374,79.8122 355.696,79.0335 C355.019,78.2549 354.681,77.2093 354.681,75.8968 C354.681,74.4905 355.038,73.3708 355.751,72.5374 C356.465,71.7041 357.423,71.2874 358.626,71.2874 C359.704,71.2874 360.616,71.6468 361.361,72.3655 Z" style="stroke:none;fill-rule:nonzero;fill:#000000;fill-opacity:1;"/>
        </g>
        <g id="Shape5">
            <desc shapeID="5" type="0" basicInfo-basicType="0" basicInfo-roundedRectRadius="12" basicInfo-polygonSides="6" basicInfo-starPoints="5" bounding="rect(-130.451,-35.1817,260.901,70.3635)" text="" font-familyName="Helvetica" font-pixelSize="20" font-bold="0" font-underline="0" font-alignment="1" strokeStyle="0" markerStart="0" markerEnd="0" shadowEnabled="0" shadowOffsetX="0" shadowOffsetY="2" shadowBlur="4" shadowOpacity="160" blurEnabled="0" blurRadius="4" transform="matrix(0.560256,0,0,1,320,204.818)" pers-center="0,0" pers-size="0,0" pers-start="0,0" pers-end="0,0" locked="0" mesh="" flag=""/>
            <path id="shapePath5" d="M260.8,169.637 L373.958,169.637 L373.958,194.949 C373.958,194.949 386.118,189.249 390.69,194.949 C393.884,198.931 393.884,211.828 390.69,215.81 C386.118,221.51 373.958,215.81 373.958,215.81 L373.958,240 L260.8,240 L260.8,217.964 L246.914,217.964 L246.914,189.908 L260.8,189.908 L260.8,169.637 Z" style="stroke:#000000;stroke-opacity:1;stroke-width:1;stroke-linejoin:miter;stroke-miterlimit:2;stroke-linecap:round;fill-rule:evenodd;fill:#ffdebf;fill-opacity:1;"/>
        </g>
        <g id="Shape6">
            <desc shapeID="6" type="2" basicInfo-basicType="0" basicInfo-roundedRectRadius="12" basicInfo-polygonSides="6" basicInfo-starPoints="5" bounding="rect(-38.7424,-19.3712,77.4848,38.7424)" text="MySqlLibroDb" font-familyName="Helvetica" font-pixelSize="16" font-bold="0" font-underline="0" font-alignment="1" strokeStyle="0" markerStart="0" markerEnd="0" shadowEnabled="0" shadowOffsetX="0" shadowOffsetY="2" shadowBlur="4" shadowOpacity="160" blurEnabled="0" blurRadius="4" transform="matrix(1,0,0,1,317.345,204.963)" pers-center="0,0" pers-size="0,0" pers-start="0,0" pers-end="0,0" locked="0" mesh="" flag=""/>
            <path id="shapePath6" d="M268.321,197.44 L270.548,197.44 L273.845,207.143 L277.118,197.44 L279.321,197.44 L279.321,208.916 L277.845,208.916 L277.845,202.143 C277.845,201.908 277.85,201.52 277.861,200.979 C277.871,200.437 277.876,199.856 277.876,199.236 L274.603,208.916 L273.064,208.916 L269.767,199.236 L269.767,199.588 C269.767,199.869 269.773,200.298 269.786,200.873 C269.799,201.449 269.806,201.872 269.806,202.143 L269.806,208.916 L268.321,208.916 L268.321,197.44 M286.728,200.549 L288.282,200.549 C288.084,201.085 287.644,202.309 286.962,204.221 C286.452,205.658 286.025,206.83 285.681,207.736 C284.868,209.872 284.295,211.174 283.962,211.643 C283.629,212.111 283.056,212.346 282.243,212.346 C282.045,212.346 281.893,212.338 281.786,212.322 C281.68,212.307 281.548,212.278 281.392,212.236 L281.392,210.955 C281.637,211.023 281.814,211.065 281.923,211.08 C282.032,211.096 282.129,211.104 282.212,211.104 C282.472,211.104 282.664,211.061 282.786,210.975 C282.909,210.889 283.012,210.783 283.095,210.658 C283.121,210.617 283.215,210.403 283.376,210.018 C283.538,209.632 283.655,209.346 283.728,209.158 L280.634,200.549 L282.228,200.549 L284.47,207.361 L286.728,200.549 M290.704,205.213 C290.741,205.864 290.894,206.393 291.165,206.799 C291.681,207.559 292.59,207.94 293.892,207.94 C294.475,207.94 295.006,207.856 295.486,207.69 C296.413,207.367 296.876,206.788 296.876,205.955 C296.876,205.33 296.681,204.885 296.29,204.619 C295.894,204.359 295.275,204.132 294.431,203.94 L292.876,203.588 C291.861,203.359 291.142,203.106 290.72,202.83 C289.991,202.351 289.626,201.635 289.626,200.682 C289.626,199.65 289.983,198.804 290.696,198.143 C291.41,197.481 292.42,197.15 293.728,197.15 C294.931,197.15 295.953,197.441 296.794,198.022 C297.635,198.602 298.056,199.531 298.056,200.807 L296.595,200.807 C296.517,200.192 296.35,199.721 296.095,199.393 C295.621,198.794 294.816,198.494 293.681,198.494 C292.764,198.494 292.105,198.687 291.704,199.072 C291.303,199.458 291.103,199.906 291.103,200.416 C291.103,200.979 291.337,201.39 291.806,201.65 C292.113,201.817 292.808,202.025 293.892,202.275 L295.501,202.643 C296.277,202.82 296.876,203.062 297.298,203.369 C298.027,203.906 298.392,204.684 298.392,205.705 C298.392,206.976 297.93,207.885 297.005,208.432 C296.081,208.979 295.006,209.252 293.782,209.252 C292.355,209.252 291.238,208.887 290.431,208.158 C289.624,207.434 289.228,206.453 289.243,205.213 L290.704,205.213 M301.384,206.666 C301.743,207.536 302.387,207.971 303.314,207.971 C304.293,207.971 304.967,207.512 305.337,206.596 C305.54,206.091 305.642,205.445 305.642,204.658 C305.642,203.934 305.53,203.33 305.306,202.846 C304.926,202.018 304.256,201.604 303.298,201.604 C302.689,201.604 302.167,201.868 301.732,202.397 C301.297,202.925 301.079,203.742 301.079,204.846 C301.079,205.57 301.181,206.177 301.384,206.666 M304.907,200.885 C305.168,201.072 305.418,201.348 305.657,201.713 L305.657,200.549 L306.993,200.549 L306.993,212.252 L305.579,212.252 L305.579,207.955 C305.345,208.33 305.021,208.628 304.607,208.85 C304.193,209.071 303.676,209.182 303.056,209.182 C302.165,209.182 301.368,208.833 300.665,208.135 C299.962,207.437 299.611,206.374 299.611,204.947 C299.611,203.609 299.94,202.51 300.599,201.65 C301.258,200.791 302.111,200.361 303.157,200.361 C303.85,200.361 304.433,200.536 304.907,200.885 M309.103,197.44 L310.509,197.44 L310.509,208.916 L309.103,208.916 L309.103,197.44 M312.798,197.44 L314.353,197.44 L314.353,207.549 L320.165,207.549 L320.165,208.916 L312.798,208.916 L312.798,197.44 M321.501,200.588 L322.931,200.588 L322.931,208.916 L321.501,208.916 L321.501,200.588 M321.501,197.44 L322.931,197.44 L322.931,199.033 L321.501,199.033 L321.501,197.44 M324.939,197.4 L326.306,197.4 L326.306,201.565 C326.613,201.163 326.98,200.858 327.407,200.647 C327.834,200.436 328.298,200.33 328.798,200.33 C329.84,200.33 330.685,200.688 331.333,201.404 C331.982,202.121 332.306,203.177 332.306,204.572 C332.306,205.895 331.986,206.994 331.345,207.869 C330.704,208.744 329.816,209.182 328.681,209.182 C328.045,209.182 327.509,209.028 327.071,208.721 C326.811,208.538 326.532,208.247 326.236,207.846 L326.236,208.916 L324.939,208.916 L324.939,197.4 M330.302,207.033 C330.68,206.429 330.868,205.632 330.868,204.643 C330.868,203.762 330.68,203.033 330.302,202.455 C329.924,201.877 329.368,201.588 328.634,201.588 C327.993,201.588 327.432,201.825 326.95,202.299 C326.469,202.773 326.228,203.554 326.228,204.643 C326.228,205.429 326.327,206.067 326.525,206.557 C326.894,207.479 327.584,207.94 328.595,207.94 C329.355,207.94 329.924,207.637 330.302,207.033 M333.978,200.549 L335.314,200.549 L335.314,201.994 C335.423,201.713 335.691,201.371 336.118,200.967 C336.545,200.563 337.038,200.361 337.595,200.361 C337.621,200.361 337.665,200.364 337.728,200.369 C337.79,200.374 337.897,200.385 338.048,200.4 L338.048,201.885 C337.965,201.869 337.888,201.859 337.818,201.854 C337.747,201.848 337.67,201.846 337.587,201.846 C336.879,201.846 336.334,202.074 335.954,202.529 C335.574,202.985 335.384,203.51 335.384,204.104 L335.384,208.916 L333.978,208.916 L333.978,200.549 M344.505,206.951 C344.851,206.246 345.025,205.46 345.025,204.596 C345.025,203.815 344.9,203.179 344.65,202.69 C344.254,201.919 343.571,201.533 342.603,201.533 C341.743,201.533 341.118,201.861 340.728,202.518 C340.337,203.174 340.142,203.966 340.142,204.893 C340.142,205.783 340.337,206.525 340.728,207.119 C341.118,207.713 341.738,208.01 342.587,208.01 C343.519,208.01 344.159,207.657 344.505,206.951 M345.376,201.385 C346.121,202.104 346.493,203.161 346.493,204.557 C346.493,205.906 346.165,207.02 345.509,207.9 C344.853,208.781 343.834,209.221 342.454,209.221 C341.303,209.221 340.389,208.831 339.712,208.053 C339.035,207.274 338.696,206.229 338.696,204.916 C338.696,203.51 339.053,202.39 339.767,201.557 C340.48,200.723 341.439,200.307 342.642,200.307 C343.72,200.307 344.631,200.666 345.376,201.385 M352.751,207.588 C353.277,207.588 353.709,207.533 354.048,207.424 C354.652,207.221 355.147,206.83 355.532,206.252 C355.84,205.788 356.061,205.195 356.196,204.471 C356.275,204.038 356.314,203.637 356.314,203.268 C356.314,201.846 356.031,200.742 355.466,199.955 C354.901,199.169 353.991,198.775 352.736,198.775 L349.978,198.775 L349.978,207.588 L352.751,207.588 M348.415,197.44 L353.064,197.44 C354.642,197.44 355.866,197.999 356.736,199.119 C357.512,200.13 357.9,201.424 357.9,203.002 C357.9,204.221 357.67,205.322 357.212,206.307 C356.405,208.046 355.017,208.916 353.048,208.916 L348.415,208.916 L348.415,197.44 M359.595,197.4 L360.962,197.4 L360.962,201.565 C361.269,201.163 361.637,200.858 362.064,200.647 C362.491,200.436 362.954,200.33 363.454,200.33 C364.496,200.33 365.341,200.688 365.989,201.404 C366.638,202.121 366.962,203.177 366.962,204.572 C366.962,205.895 366.642,206.994 366.001,207.869 C365.361,208.744 364.472,209.182 363.337,209.182 C362.702,209.182 362.165,209.028 361.728,208.721 C361.467,208.538 361.189,208.247 360.892,207.846 L360.892,208.916 L359.595,208.916 L359.595,197.4 M364.958,207.033 C365.336,206.429 365.525,205.632 365.525,204.643 C365.525,203.762 365.336,203.033 364.958,202.455 C364.581,201.877 364.025,201.588 363.29,201.588 C362.65,201.588 362.088,201.825 361.607,202.299 C361.125,202.773 360.884,203.554 360.884,204.643 C360.884,205.429 360.983,206.067 361.181,206.557 C361.551,207.479 362.241,207.94 363.251,207.94 C364.012,207.94 364.581,207.637 364.958,207.033 Z" style="stroke:none;fill-rule:nonzero;fill:#000000;fill-opacity:1;"/>
        </g>
        <g id="Shape7">
            <desc shapeID="7" type="0" basicInfo-basicType="0" basicInfo-roundedRectRadius="12" basicInfo-polygonSides="6" basicInfo-starPoints="5" bounding="rect(-62.8975,-38.306,125.795,76.612)" text="" font-familyName="Helvetica" font-pixelSize="20" font-bold="0" font-underline="0" font-alignment="1" strokeStyle="0" markerStart="0" markerEnd="0" shadowEnabled="0" shadowOffsetX="0" shadowOffsetY="2" shadowBlur="4" shadowOpacity="160" blurEnabled="0" blurRadius="4" transform="matrix(1,0,0,1,499.54,206.737)" pers-center="0,0" pers-size="0,0" pers-start="0,0" pers-end="0,0" locked="0" mesh="" flag=""/>
            <path id="shapePath7" d="M436.643,180.431 C436.643,173.804 442.015,168.431 448.643,168.431 L550.438,168.431 C557.065,168.431 562.438,173.804 562.438,180.431 L562.438,233.043 C562.438,239.67 557.065,245.043 550.438,245.043 L448.643,245.043 C442.015,245.043 436.643,239.67 436.643,233.043 L436.643,217.756 C436.643,217.756 449.951,221.597 453.465,217.756 C457.305,213.558 457.305,200.966 453.465,196.768 C449.951,192.927 436.643,196.768 436.643,196.768 L436.643,180.431 Z" style="stroke:#000000;stroke-opacity:1;stroke-width:1;stroke-linejoin:miter;stroke-miterlimit:2;stroke-linecap:round;fill-rule:evenodd;fill:#ffd0b5;fill-opacity:1;"/>
        </g>
        <g id="Shape8">
            <desc shapeID="8" type="2" basicInfo-basicType="0" basicInfo-roundedRectRadius="12" basicInfo-polygonSides="6" basicInfo-starPoints="5" bounding="rect(-42.7945,-26.5205,85.589,53.0411)" text="MySql&#10;Java&#10;API" font-familyName="Helvetica" font-pixelSize="20" font-bold="0" font-underline="0" font-alignment="1" strokeStyle="0" markerStart="0" markerEnd="0" shadowEnabled="0" shadowOffsetX="0" shadowOffsetY="2" shadowBlur="4" shadowOpacity="160" blurEnabled="0" blurRadius="4" transform="matrix(1,0,0,1,503.438,208.216)" pers-center="0,0" pers-size="0,0" pers-start="0,0" pers-end="0,0" locked="0" mesh="" flag=""/>
            <path id="shapePath8" d="M477.147,179.745 L479.93,179.745 L484.051,191.874 L488.143,179.745 L490.897,179.745 L490.897,194.091 L489.051,194.091 L489.051,185.624 C489.051,185.331 489.058,184.846 489.071,184.169 C489.084,183.492 489.09,182.766 489.09,181.991 L484.999,194.091 L483.075,194.091 L478.954,181.991 L478.954,182.43 C478.954,182.782 478.962,183.317 478.978,184.037 C478.994,184.756 479.003,185.285 479.003,185.624 L479.003,194.091 L477.147,194.091 L477.147,179.745 M500.151,183.632 L502.094,183.632 C501.847,184.302 501.297,185.832 500.444,188.221 C499.806,190.018 499.272,191.483 498.842,192.616 C497.827,195.285 497.111,196.913 496.694,197.499 C496.277,198.085 495.561,198.378 494.546,198.378 C494.298,198.378 494.108,198.368 493.974,198.348 C493.841,198.329 493.676,198.293 493.481,198.241 L493.481,196.639 C493.787,196.724 494.008,196.776 494.145,196.796 C494.282,196.815 494.402,196.825 494.507,196.825 C494.832,196.825 495.071,196.771 495.224,196.664 C495.377,196.556 495.506,196.425 495.61,196.268 C495.643,196.216 495.76,195.949 495.962,195.467 C496.163,194.986 496.31,194.628 496.401,194.393 L492.534,183.632 L494.526,183.632 L497.329,192.147 L500.151,183.632 M505.122,189.462 C505.167,190.275 505.359,190.936 505.698,191.444 C506.342,192.395 507.479,192.87 509.106,192.87 C509.835,192.87 510.499,192.766 511.098,192.557 C512.257,192.154 512.837,191.431 512.837,190.389 C512.837,189.608 512.592,189.051 512.104,188.719 C511.609,188.394 510.835,188.111 509.78,187.87 L507.837,187.43 C506.567,187.144 505.669,186.828 505.141,186.483 C504.23,185.884 503.774,184.989 503.774,183.798 C503.774,182.508 504.22,181.451 505.112,180.624 C506.004,179.797 507.267,179.383 508.901,179.383 C510.405,179.383 511.683,179.746 512.734,180.472 C513.785,181.198 514.311,182.359 514.311,183.954 L512.485,183.954 C512.387,183.186 512.179,182.596 511.86,182.186 C511.268,181.438 510.262,181.063 508.842,181.063 C507.697,181.063 506.873,181.304 506.372,181.786 C505.87,182.268 505.62,182.828 505.62,183.466 C505.62,184.169 505.913,184.683 506.499,185.008 C506.883,185.217 507.752,185.477 509.106,185.79 L511.118,186.249 C512.088,186.47 512.837,186.773 513.364,187.157 C514.275,187.828 514.731,188.801 514.731,190.077 C514.731,191.665 514.153,192.801 512.998,193.485 C511.842,194.169 510.499,194.51 508.969,194.51 C507.186,194.51 505.789,194.055 504.78,193.143 C503.771,192.238 503.276,191.011 503.296,189.462 L505.122,189.462 M518.46,191.278 C518.909,192.365 519.713,192.909 520.872,192.909 C522.096,192.909 522.939,192.336 523.401,191.19 C523.655,190.559 523.782,189.751 523.782,188.768 C523.782,187.863 523.642,187.108 523.362,186.503 C522.887,185.467 522.05,184.95 520.852,184.95 C520.09,184.95 519.438,185.28 518.894,185.941 C518.351,186.602 518.079,187.622 518.079,189.003 C518.079,189.908 518.206,190.666 518.46,191.278 M522.864,184.051 C523.189,184.286 523.502,184.631 523.801,185.087 L523.801,183.632 L525.471,183.632 L525.471,198.26 L523.704,198.26 L523.704,192.889 C523.411,193.358 523.005,193.731 522.488,194.008 C521.97,194.284 521.324,194.423 520.549,194.423 C519.436,194.423 518.44,193.986 517.561,193.114 C516.682,192.242 516.243,190.913 516.243,189.13 C516.243,187.456 516.655,186.083 517.478,185.008 C518.302,183.934 519.368,183.397 520.676,183.397 C521.542,183.397 522.271,183.615 522.864,184.051 M528.104,179.745 L529.862,179.745 L529.862,194.091 L528.104,194.091 L528.104,179.745 M490.893,209.813 C490.893,211.024 490.714,211.965 490.356,212.635 C489.692,213.859 488.429,214.471 486.567,214.471 C485.493,214.471 484.575,214.18 483.813,213.597 C483.051,213.015 482.671,211.978 482.671,210.487 L482.671,209.462 L484.497,209.462 L484.497,210.487 C484.497,211.268 484.671,211.856 485.019,212.25 C485.367,212.644 485.909,212.841 486.645,212.841 C487.68,212.841 488.357,212.486 488.676,211.776 C488.872,211.34 488.969,210.516 488.969,209.305 L488.969,199.745 L490.893,199.745 L490.893,209.813 M495.522,212.508 C495.893,212.801 496.333,212.948 496.84,212.948 C497.459,212.948 498.058,212.805 498.637,212.518 C499.614,212.043 500.102,211.265 500.102,210.184 L500.102,208.768 C499.887,208.905 499.611,209.019 499.272,209.11 C498.934,209.201 498.602,209.266 498.276,209.305 L497.212,209.442 C496.574,209.527 496.095,209.66 495.776,209.842 C495.236,210.148 494.965,210.637 494.965,211.307 C494.965,211.815 495.151,212.216 495.522,212.508 M499.223,207.753 C499.627,207.701 499.897,207.531 500.034,207.245 C500.112,207.089 500.151,206.864 500.151,206.571 C500.151,205.972 499.938,205.537 499.511,205.267 C499.085,204.997 498.475,204.862 497.68,204.862 C496.762,204.862 496.111,205.109 495.727,205.604 C495.512,205.878 495.372,206.285 495.307,206.825 L493.667,206.825 C493.699,205.536 494.117,204.639 494.922,204.134 C495.726,203.63 496.658,203.378 497.719,203.378 C498.95,203.378 499.949,203.612 500.717,204.081 C501.479,204.55 501.86,205.279 501.86,206.268 L501.86,212.294 C501.86,212.476 501.897,212.622 501.972,212.733 C502.047,212.844 502.205,212.899 502.446,212.899 C502.524,212.899 502.612,212.894 502.71,212.884 C502.807,212.875 502.911,212.86 503.022,212.841 L503.022,214.139 C502.749,214.217 502.54,214.266 502.397,214.286 C502.254,214.305 502.059,214.315 501.811,214.315 C501.206,214.315 500.766,214.1 500.493,213.671 C500.35,213.443 500.249,213.12 500.19,212.704 C499.832,213.173 499.318,213.579 498.647,213.925 C497.977,214.27 497.238,214.442 496.43,214.442 C495.46,214.442 494.668,214.147 494.052,213.558 C493.437,212.969 493.13,212.232 493.13,211.346 C493.13,210.376 493.432,209.624 494.038,209.091 C494.643,208.557 495.438,208.228 496.421,208.104 L499.223,207.753 M505.587,203.632 L508.38,212.147 L511.299,203.632 L513.223,203.632 L509.278,214.091 L507.403,214.091 L503.546,203.632 L505.587,203.632 M516.631,212.508 C517.003,212.801 517.442,212.948 517.95,212.948 C518.568,212.948 519.167,212.805 519.747,212.518 C520.723,212.043 521.212,211.265 521.212,210.184 L521.212,208.768 C520.997,208.905 520.72,209.019 520.381,209.11 C520.043,209.201 519.711,209.266 519.385,209.305 L518.321,209.442 C517.683,209.527 517.204,209.66 516.885,209.842 C516.345,210.148 516.075,210.637 516.075,211.307 C516.075,211.815 516.26,212.216 516.631,212.508 M520.333,207.753 C520.736,207.701 521.006,207.531 521.143,207.245 C521.221,207.089 521.26,206.864 521.26,206.571 C521.26,205.972 521.047,205.537 520.621,205.267 C520.194,204.997 519.584,204.862 518.79,204.862 C517.872,204.862 517.221,205.109 516.837,205.604 C516.622,205.878 516.482,206.285 516.417,206.825 L514.776,206.825 C514.809,205.536 515.227,204.639 516.031,204.134 C516.835,203.63 517.768,203.378 518.829,203.378 C520.059,203.378 521.059,203.612 521.827,204.081 C522.589,204.55 522.969,205.279 522.969,206.268 L522.969,212.294 C522.969,212.476 523.007,212.622 523.082,212.733 C523.157,212.844 523.314,212.899 523.555,212.899 C523.633,212.899 523.721,212.894 523.819,212.884 C523.917,212.875 524.021,212.86 524.131,212.841 L524.131,214.139 C523.858,214.217 523.65,214.266 523.506,214.286 C523.363,214.305 523.168,214.315 522.921,214.315 C522.315,214.315 521.876,214.1 521.602,213.671 C521.459,213.443 521.358,213.12 521.299,212.704 C520.941,213.173 520.427,213.579 519.756,213.925 C519.086,214.27 518.347,214.442 517.54,214.442 C516.57,214.442 515.777,214.147 515.162,213.558 C514.547,212.969 514.239,212.232 514.239,211.346 C514.239,210.376 514.542,209.624 515.147,209.091 C515.753,208.557 516.547,208.228 517.53,208.104 L520.333,207.753 M496.231,228.212 L494.053,221.874 L491.739,228.212 L496.231,228.212 M493.038,219.745 L495.235,219.745 L500.44,234.091 L498.311,234.091 L496.856,229.794 L491.182,229.794 L489.63,234.091 L487.637,234.091 L493.038,219.745 M502.382,219.745 L508.837,219.745 C510.113,219.745 511.141,220.105 511.923,220.824 C512.704,221.543 513.094,222.554 513.094,223.856 C513.094,224.976 512.746,225.951 512.049,226.781 C511.353,227.611 510.282,228.026 508.837,228.026 L504.325,228.026 L504.325,234.091 L502.382,234.091 L502.382,219.745 M509.96,221.717 C509.53,221.516 508.941,221.415 508.192,221.415 L504.325,221.415 L504.325,226.385 L508.192,226.385 C509.064,226.385 509.772,226.2 510.316,225.829 C510.86,225.458 511.132,224.803 511.132,223.866 C511.132,222.811 510.741,222.095 509.96,221.717 M515.964,219.745 L517.926,219.745 L517.926,234.091 L515.964,234.091 L515.964,219.745 Z" style="stroke:none;fill-rule:nonzero;fill:#000000;fill-opacity:1;"/>
        </g>
        <g id="Shape9">
            <desc shapeID="9" type="0" basicInfo-basicType="0" basicInfo-roundedRectRadius="12" basicInfo-polygonSides="6" basicInfo-starPoints="5" bounding="rect(-37.2862,-29.6456,74.5724,59.2912)" text="" font-familyName="Helvetica" font-pixelSize="20" font-bold="0" font-underline="0" font-alignment="1" strokeStyle="0" markerStart="0" markerEnd="0" shadowEnabled="0" shadowOffsetX="0" shadowOffsetY="2" shadowBlur="4" shadowOpacity="160" blurEnabled="0" blurRadius="4" transform="matrix(1,0,0,1,491.964,325.796)" pers-center="0,0" pers-size="0,0" pers-start="0,0" pers-end="0,0" locked="0" mesh="" flag=""/>
            <path id="shapePath9" d="M454.678,302.568 L467.289,296.15 L517.251,296.15 L529.251,302.568 L529.251,343.441 C529.251,350.069 501.456,355.441 494.828,355.441 C488.201,355.441 455.289,350.069 455.289,343.441 L454.678,302.568 Z" style="stroke:#000000;stroke-opacity:1;stroke-width:1;stroke-linejoin:miter;stroke-miterlimit:2;stroke-linecap:round;fill-rule:evenodd;fill:#ff9fed;fill-opacity:1;"/>
        </g>
        <g id="Shape10">
            <desc shapeID="10" type="0" basicInfo-basicType="4" basicInfo-roundedRectRadius="12" basicInfo-polygonSides="6" basicInfo-starPoints="5" bounding="rect(-37.5918,-12.5306,75.1837,25.0612)" text="" font-familyName="Helvetica" font-pixelSize="20" font-bold="0" font-underline="0" font-alignment="1" strokeStyle="0" markerStart="0" markerEnd="0" shadowEnabled="0" shadowOffsetX="0" shadowOffsetY="2" shadowBlur="4" shadowOpacity="160" blurEnabled="0" blurRadius="4" transform="matrix(1,0,0,1,492.27,302.568)" pers-center="0,0" pers-size="0,0" pers-start="0,0" pers-end="0,0" locked="0" mesh="" flag=""/>
            <path id="shapePath10" d="M454.678,302.568 C454.678,295.648 471.509,290.038 492.27,290.038 C513.031,290.038 529.862,295.648 529.862,302.568 C529.862,309.489 513.031,315.099 492.27,315.099 C471.509,315.099 454.678,309.489 454.678,302.568 Z" style="stroke:#000000;stroke-opacity:1;stroke-width:1;stroke-linejoin:miter;stroke-miterlimit:2;stroke-linecap:round;fill-rule:evenodd;fill:#ff9fed;fill-opacity:1;"/>
        </g>
        <g id="Shape11">
            <desc shapeID="11" type="2" basicInfo-basicType="0" basicInfo-roundedRectRadius="12" basicInfo-polygonSides="6" basicInfo-starPoints="5" bounding="rect(-28.7287,-10.6969,57.4574,21.3937)" text="DB" font-familyName="Helvetica" font-pixelSize="20" font-bold="0" font-underline="0" font-alignment="1" strokeStyle="0" markerStart="0" markerEnd="0" shadowEnabled="0" shadowOffsetX="0" shadowOffsetY="2" shadowBlur="4" shadowOpacity="160" blurEnabled="0" blurRadius="4" transform="matrix(1,0,0,1,494.409,331.297)" pers-center="0,0" pers-size="0,0" pers-start="0,0" pers-end="0,0" locked="0" mesh="" flag=""/>
            <path id="shapePath11" d="M487.566,335.34 C488.223,335.34 488.764,335.272 489.187,335.135 C489.942,334.881 490.56,334.393 491.042,333.67 C491.426,333.091 491.703,332.349 491.872,331.444 C491.97,330.903 492.019,330.402 492.019,329.94 C492.019,328.162 491.666,326.782 490.959,325.799 C490.253,324.816 489.115,324.324 487.546,324.324 L484.099,324.324 L484.099,335.34 L487.566,335.34 M482.146,322.655 L487.956,322.655 C489.929,322.655 491.459,323.354 492.546,324.754 C493.516,326.017 494.001,327.635 494.001,329.608 C494.001,331.131 493.715,332.508 493.142,333.739 C492.133,335.913 490.398,337 487.937,337 L482.146,337 L482.146,322.655 M501.886,328.719 C502.706,328.719 503.344,328.605 503.8,328.377 C504.516,328.019 504.874,327.375 504.874,326.444 C504.874,325.506 504.493,324.875 503.732,324.549 C503.302,324.367 502.664,324.276 501.818,324.276 L498.351,324.276 L498.351,328.719 L501.886,328.719 M502.54,335.34 C503.732,335.34 504.581,334.995 505.089,334.305 C505.408,333.869 505.568,333.341 505.568,332.723 C505.568,331.681 505.102,330.972 504.171,330.594 C503.676,330.392 503.022,330.291 502.208,330.291 L498.351,330.291 L498.351,335.34 L502.54,335.34 M496.447,322.655 L502.609,322.655 C504.288,322.655 505.483,323.156 506.193,324.158 C506.609,324.751 506.818,325.435 506.818,326.209 C506.818,327.114 506.56,327.856 506.046,328.436 C505.779,328.742 505.395,329.022 504.894,329.276 C505.63,329.556 506.18,329.871 506.544,330.223 C507.189,330.848 507.511,331.711 507.511,332.811 C507.511,333.735 507.221,334.572 506.642,335.321 C505.776,336.44 504.399,337 502.511,337 L496.447,337 L496.447,322.655 Z" style="stroke:none;fill-rule:nonzero;fill:#000000;fill-opacity:1;"/>
        </g>
        <g id="Shape12">
            <desc shapeID="12" type="0" basicInfo-basicType="0" basicInfo-roundedRectRadius="12" basicInfo-polygonSides="6" basicInfo-starPoints="5" bounding="rect(0,-17.4206,0,34.8412)" text="" font-familyName="Helvetica" font-pixelSize="20" font-bold="0" font-underline="0" font-alignment="1" strokeStyle="0" markerStart="0" markerEnd="0" shadowEnabled="0" shadowOffsetX="0" shadowOffsetY="2" shadowBlur="4" shadowOpacity="160" blurEnabled="0" blurRadius="4" transform="matrix(1,0,0,1,492.973,264.06)" pers-center="0,0" pers-size="0,0" pers-start="0,0" pers-end="0,0" locked="0" mesh="" flag=""/>
            <path id="shapePath12" d="M492.973,246.639 L492.973,281.48 " style="stroke:#000000;stroke-opacity:1;stroke-width:1;stroke-linejoin:miter;stroke-miterlimit:2;stroke-linecap:round;fill-rule:evenodd;fill:#ff9fed;fill-opacity:1;"/>
        </g>
        <g id="Shape13">
            <desc shapeID="13" type="0" basicInfo-basicType="0" basicInfo-roundedRectRadius="12" basicInfo-polygonSides="6" basicInfo-starPoints="5" bounding="rect(-9.78,-3.97311,19.56,7.94623)" text="" font-familyName="Helvetica" font-pixelSize="20" font-bold="0" font-underline="0" font-alignment="1" strokeStyle="0" markerStart="0" markerEnd="0" shadowEnabled="0" shadowOffsetX="0" shadowOffsetY="2" shadowBlur="4" shadowOpacity="160" blurEnabled="0" blurRadius="4" transform="matrix(-1,0,0,1,502.753,277.507)" pers-center="0,0" pers-size="0,0" pers-start="0,0" pers-end="0,0" locked="0" mesh="" flag=""/>
            <path id="shapePath13" d="M512.533,273.534 C512.533,273.534 492.973,281.48 492.973,281.48 " style="stroke:#000000;stroke-opacity:1;stroke-width:1;stroke-linejoin:miter;stroke-miterlimit:2;stroke-linecap:round;fill-rule:evenodd;fill:#ff9fed;fill-opacity:1;"/>
        </g>
        <g id="Shape14">
            <desc shapeID="14" type="0" basicInfo-basicType="0" basicInfo-roundedRectRadius="12" basicInfo-polygonSides="6" basicInfo-starPoints="5" bounding="rect(-9.78,-3.97311,19.56,7.94623)" text="" font-familyName="Helvetica" font-pixelSize="20" font-bold="0" font-underline="0" font-alignment="1" strokeStyle="0" markerStart="0" markerEnd="0" shadowEnabled="0" shadowOffsetX="0" shadowOffsetY="2" shadowBlur="4" shadowOpacity="160" blurEnabled="0" blurRadius="4" transform="matrix(1,0,0,1,483.193,277.507)" pers-center="0,0" pers-size="0,0" pers-start="0,0" pers-end="0,0" locked="0" mesh="" flag=""/>
            <path id="shapePath14" d="M473.413,273.534 C473.413,273.534 492.973,281.48 492.973,281.48 " style="stroke:#000000;stroke-opacity:1;stroke-width:1;stroke-linejoin:miter;stroke-miterlimit:2;stroke-linecap:round;fill-rule:evenodd;fill:#ff9fed;fill-opacity:1;"/>
        </g>
        <g id="Shape15">
            <desc shapeID="15" type="0" basicInfo-basicType="0" basicInfo-roundedRectRadius="12" basicInfo-polygonSides="6" basicInfo-starPoints="5" bounding="rect(-16.8247,-78.443,33.6494,156.886)" text="" font-familyName="Helvetica" font-pixelSize="20" font-bold="0" font-underline="0" font-alignment="1" strokeStyle="0" markerStart="0" markerEnd="0" shadowEnabled="0" shadowOffsetX="0" shadowOffsetY="2" shadowBlur="4" shadowOpacity="160" blurEnabled="0" blurRadius="4" transform="matrix(1,0,0,1,215.469,214.939)" pers-center="0,0" pers-size="0,0" pers-start="0,0" pers-end="0,0" locked="0" mesh="" flag=""/>
            <path id="shapePath15" d="M223.621,136.496 C223.621,136.496 243.134,154.448 223.621,214.549 C204.108,274.65 198.644,293.382 198.644,293.382 " style="stroke:#323232;stroke-opacity:1;stroke-width:2.5;stroke-linejoin:miter;stroke-miterlimit:2;stroke-linecap:round;fill:none;"/>
        </g>
        <g id="Shape16">
            <desc shapeID="16" type="2" basicInfo-basicType="0" basicInfo-roundedRectRadius="12" basicInfo-polygonSides="6" basicInfo-starPoints="5" bounding="rect(-57.3688,-12.4884,114.738,24.9769)" text="interface LibroDb" font-familyName="Helvetica" font-pixelSize="14" font-bold="0" font-underline="0" font-alignment="1" strokeStyle="0" markerStart="0" markerEnd="0" shadowEnabled="0" shadowOffsetX="0" shadowOffsetY="2" shadowBlur="4" shadowOpacity="160" blurEnabled="0" blurRadius="4" transform="matrix(1,0,0,1,194.776,306.82)" pers-center="0,0" pers-size="0,0" pers-start="0,0" pers-end="0,0" locked="0" mesh="" flag=""/>
            <path id="shapePath16" d="M142.428,302.814 L143.679,302.814 L143.679,310.101 L142.428,310.101 L142.428,302.814 M142.428,300.059 L143.679,300.059 L143.679,301.453 L142.428,301.453 L142.428,300.059 M145.538,302.78 L146.707,302.78 L146.707,303.819 C147.053,303.39 147.42,303.083 147.807,302.896 C148.195,302.709 148.625,302.615 149.099,302.615 C150.138,302.615 150.84,302.978 151.205,303.702 C151.405,304.099 151.505,304.666 151.505,305.405 L151.505,310.101 L150.254,310.101 L150.254,305.487 C150.254,305.04 150.188,304.68 150.056,304.406 C149.837,303.951 149.441,303.723 148.867,303.723 C148.575,303.723 148.336,303.753 148.149,303.812 C147.812,303.912 147.516,304.113 147.26,304.413 C147.055,304.655 146.922,304.904 146.86,305.162 C146.799,305.419 146.768,305.787 146.768,306.266 L146.768,310.101 L145.538,310.101 L145.538,302.78 M153.565,300.736 L154.809,300.736 L154.809,302.78 L155.978,302.78 L155.978,303.784 L154.809,303.784 L154.809,308.563 C154.809,308.818 154.896,308.989 155.069,309.075 C155.165,309.126 155.324,309.151 155.547,309.151 C155.607,309.151 155.67,309.149 155.739,309.147 C155.807,309.145 155.887,309.139 155.978,309.13 L155.978,310.101 C155.837,310.142 155.69,310.171 155.537,310.19 C155.384,310.208 155.219,310.217 155.042,310.217 C154.467,310.217 154.078,310.07 153.873,309.776 C153.668,309.482 153.565,309.1 153.565,308.631 L153.565,303.784 L152.574,303.784 L152.574,302.78 L153.565,302.78 L153.565,300.736 M161.753,302.981 C162.241,303.225 162.613,303.541 162.868,303.928 C163.114,304.297 163.278,304.728 163.36,305.22 C163.433,305.557 163.469,306.095 163.469,306.833 L158.103,306.833 C158.126,307.576 158.301,308.172 158.629,308.621 C158.958,309.07 159.466,309.294 160.154,309.294 C160.796,309.294 161.309,309.082 161.692,308.658 C161.911,308.412 162.066,308.128 162.157,307.804 L163.367,307.804 C163.335,308.073 163.229,308.372 163.049,308.703 C162.869,309.033 162.667,309.303 162.444,309.513 C162.07,309.878 161.608,310.124 161.056,310.251 C160.76,310.324 160.425,310.361 160.051,310.361 C159.14,310.361 158.367,310.029 157.734,309.366 C157.1,308.703 156.784,307.774 156.784,306.58 C156.784,305.405 157.103,304.45 157.741,303.716 C158.379,302.982 159.213,302.615 160.243,302.615 C160.762,302.615 161.266,302.737 161.753,302.981 M162.205,305.856 C162.155,305.322 162.038,304.896 161.856,304.577 C161.519,303.985 160.956,303.689 160.168,303.689 C159.602,303.689 159.128,303.893 158.746,304.301 C158.363,304.708 158.16,305.227 158.137,305.856 L162.205,305.856 M165.009,302.78 L166.178,302.78 L166.178,304.044 C166.274,303.798 166.509,303.498 166.882,303.145 C167.256,302.792 167.687,302.615 168.174,302.615 C168.197,302.615 168.236,302.618 168.291,302.622 C168.345,302.627 168.439,302.636 168.571,302.65 L168.571,303.948 C168.498,303.935 168.431,303.926 168.369,303.921 C168.308,303.917 168.24,303.914 168.168,303.914 C167.548,303.914 167.072,304.114 166.739,304.512 C166.406,304.911 166.24,305.37 166.24,305.89 L166.24,310.101 L165.009,310.101 L165.009,302.78 M170.206,300.544 C170.493,300.125 171.046,299.915 171.867,299.915 C171.944,299.915 172.024,299.918 172.106,299.922 C172.188,299.927 172.281,299.933 172.386,299.943 L172.386,301.064 C172.259,301.055 172.166,301.049 172.109,301.047 C172.052,301.044 171.999,301.043 171.949,301.043 C171.575,301.043 171.352,301.14 171.279,301.334 C171.206,301.527 171.169,302.021 171.169,302.814 L172.386,302.814 L172.386,303.784 L171.156,303.784 L171.156,310.101 L169.939,310.101 L169.939,303.784 L168.92,303.784 L168.92,302.814 L169.939,302.814 L169.939,301.665 C169.957,301.155 170.046,300.781 170.206,300.544 M174.839,308.993 C175.099,309.198 175.407,309.301 175.762,309.301 C176.195,309.301 176.614,309.201 177.02,309 C177.704,308.668 178.045,308.123 178.045,307.366 L178.045,306.375 C177.895,306.471 177.701,306.551 177.464,306.614 C177.227,306.678 176.995,306.724 176.767,306.751 L176.022,306.847 C175.575,306.906 175.24,307 175.017,307.127 C174.639,307.341 174.45,307.683 174.45,308.153 C174.45,308.508 174.58,308.788 174.839,308.993 M177.43,305.664 C177.713,305.628 177.902,305.509 177.998,305.309 C178.052,305.199 178.08,305.042 178.08,304.837 C178.08,304.418 177.93,304.114 177.632,303.925 C177.333,303.735 176.906,303.641 176.35,303.641 C175.708,303.641 175.252,303.814 174.983,304.16 C174.833,304.352 174.735,304.637 174.689,305.015 L173.541,305.015 C173.563,304.113 173.856,303.485 174.419,303.132 C174.982,302.778 175.635,302.602 176.377,302.602 C177.239,302.602 177.938,302.766 178.476,303.094 C179.009,303.422 179.276,303.932 179.276,304.625 L179.276,308.843 C179.276,308.971 179.302,309.073 179.355,309.151 C179.407,309.228 179.517,309.267 179.686,309.267 C179.741,309.267 179.802,309.263 179.871,309.257 C179.939,309.25 180.012,309.239 180.089,309.226 L180.089,310.135 C179.898,310.19 179.752,310.224 179.652,310.238 C179.552,310.251 179.415,310.258 179.242,310.258 C178.818,310.258 178.51,310.108 178.319,309.807 C178.219,309.647 178.148,309.422 178.107,309.13 C177.856,309.458 177.496,309.743 177.027,309.985 C176.557,310.226 176.04,310.347 175.475,310.347 C174.796,310.347 174.241,310.141 173.811,309.728 C173.38,309.316 173.165,308.8 173.165,308.18 C173.165,307.501 173.377,306.974 173.8,306.601 C174.224,306.227 174.78,305.997 175.468,305.91 L177.43,305.664 M186.124,303.169 C186.641,303.57 186.952,304.261 187.057,305.24 L185.861,305.24 C185.788,304.789 185.622,304.414 185.362,304.116 C185.102,303.817 184.685,303.668 184.111,303.668 C183.327,303.668 182.766,304.051 182.429,304.817 C182.21,305.313 182.101,305.926 182.101,306.655 C182.101,307.389 182.256,308.007 182.566,308.508 C182.876,309.009 183.363,309.26 184.029,309.26 C184.539,309.26 184.944,309.104 185.242,308.792 C185.541,308.48 185.747,308.052 185.861,307.51 L187.057,307.51 C186.92,308.481 186.579,309.19 186.032,309.639 C185.485,310.088 184.785,310.313 183.933,310.313 C182.976,310.313 182.213,309.963 181.643,309.263 C181.073,308.564 180.789,307.69 180.789,306.642 C180.789,305.357 181.101,304.356 181.725,303.641 C182.349,302.925 183.145,302.568 184.111,302.568 C184.936,302.568 185.607,302.768 186.124,303.169 M192.847,302.981 C193.335,303.225 193.706,303.541 193.961,303.928 C194.208,304.297 194.372,304.728 194.454,305.22 C194.527,305.557 194.563,306.095 194.563,306.833 L189.197,306.833 C189.22,307.576 189.395,308.172 189.723,308.621 C190.051,309.07 190.559,309.294 191.248,309.294 C191.89,309.294 192.403,309.082 192.786,308.658 C193.004,308.412 193.159,308.128 193.251,307.804 L194.46,307.804 C194.429,308.073 194.323,308.372 194.143,308.703 C193.963,309.033 193.761,309.303 193.538,309.513 C193.164,309.878 192.701,310.124 192.15,310.251 C191.854,310.324 191.519,310.361 191.145,310.361 C190.234,310.361 189.461,310.029 188.828,309.366 C188.194,308.703 187.877,307.774 187.877,306.58 C187.877,305.405 188.197,304.45 188.835,303.716 C189.473,302.982 190.307,302.615 191.336,302.615 C191.856,302.615 192.36,302.737 192.847,302.981 M193.298,305.856 C193.248,305.322 193.132,304.896 192.95,304.577 C192.613,303.985 192.05,303.689 191.261,303.689 C190.696,303.689 190.222,303.893 189.839,304.301 C189.457,304.708 189.254,305.227 189.231,305.856 L193.298,305.856 M200.108,300.059 L201.468,300.059 L201.468,308.905 L206.554,308.905 L206.554,310.101 L200.108,310.101 L200.108,300.059 M207.725,302.814 L208.976,302.814 L208.976,310.101 L207.725,310.101 L207.725,302.814 M207.725,300.059 L208.976,300.059 L208.976,301.453 L207.725,301.453 L207.725,300.059 M210.739,300.025 L211.935,300.025 L211.935,303.668 C212.204,303.317 212.525,303.05 212.899,302.865 C213.273,302.68 213.678,302.588 214.116,302.588 C215.027,302.588 215.767,302.901 216.334,303.528 C216.901,304.155 217.185,305.079 217.185,306.3 C217.185,307.458 216.905,308.419 216.344,309.185 C215.784,309.95 215.007,310.333 214.013,310.333 C213.457,310.333 212.988,310.199 212.605,309.93 C212.377,309.77 212.133,309.515 211.874,309.164 L211.874,310.101 L210.739,310.101 L210.739,300.025 M215.432,308.453 C215.762,307.925 215.927,307.227 215.927,306.362 C215.927,305.591 215.762,304.953 215.432,304.447 C215.101,303.942 214.615,303.689 213.972,303.689 C213.412,303.689 212.921,303.896 212.499,304.311 C212.078,304.725 211.867,305.409 211.867,306.362 C211.867,307.05 211.953,307.608 212.127,308.036 C212.45,308.843 213.054,309.246 213.938,309.246 C214.603,309.246 215.101,308.982 215.432,308.453 M218.65,302.78 L219.819,302.78 L219.819,304.044 C219.915,303.798 220.149,303.498 220.523,303.145 C220.897,302.792 221.327,302.615 221.815,302.615 C221.838,302.615 221.877,302.618 221.931,302.622 C221.986,302.627 222.079,302.636 222.211,302.65 L222.211,303.948 C222.139,303.935 222.071,303.926 222.01,303.921 C221.948,303.917 221.881,303.914 221.808,303.914 C221.188,303.914 220.712,304.114 220.379,304.512 C220.047,304.911 219.88,305.37 219.88,305.89 L219.88,310.101 L218.65,310.101 L218.65,302.78 M227.856,308.382 C228.159,307.764 228.31,307.077 228.31,306.321 C228.31,305.637 228.201,305.081 227.982,304.653 C227.636,303.978 227.039,303.641 226.191,303.641 C225.439,303.641 224.892,303.928 224.55,304.502 C224.209,305.076 224.038,305.769 224.038,306.58 C224.038,307.36 224.209,308.009 224.55,308.529 C224.892,309.048 225.434,309.308 226.177,309.308 C226.993,309.308 227.552,308.999 227.856,308.382 M228.618,303.511 C229.269,304.14 229.595,305.065 229.595,306.286 C229.595,307.467 229.308,308.442 228.734,309.212 C228.16,309.982 227.269,310.367 226.061,310.367 C225.054,310.367 224.254,310.027 223.662,309.345 C223.069,308.664 222.773,307.749 222.773,306.601 C222.773,305.37 223.085,304.391 223.71,303.661 C224.334,302.932 225.172,302.568 226.225,302.568 C227.169,302.568 227.966,302.882 228.618,303.511 M235.073,308.939 C235.533,308.939 235.911,308.891 236.208,308.795 C236.736,308.617 237.169,308.276 237.506,307.77 C237.775,307.364 237.969,306.845 238.087,306.211 C238.156,305.833 238.19,305.482 238.19,305.158 C238.19,303.914 237.943,302.948 237.448,302.26 C236.954,301.572 236.157,301.228 235.059,301.228 L232.646,301.228 L232.646,308.939 L235.073,308.939 M231.279,300.059 L235.346,300.059 C236.727,300.059 237.798,300.549 238.559,301.529 C239.238,302.413 239.578,303.545 239.578,304.926 C239.578,305.992 239.377,306.956 238.976,307.818 C238.27,309.34 237.055,310.101 235.333,310.101 L231.279,310.101 L231.279,300.059 M241.067,300.025 L242.263,300.025 L242.263,303.668 C242.532,303.317 242.853,303.05 243.227,302.865 C243.601,302.68 244.006,302.588 244.444,302.588 C245.355,302.588 246.095,302.901 246.662,303.528 C247.23,304.155 247.513,305.079 247.513,306.3 C247.513,307.458 247.233,308.419 246.672,309.185 C246.112,309.95 245.335,310.333 244.341,310.333 C243.785,310.333 243.316,310.199 242.933,309.93 C242.705,309.77 242.461,309.515 242.202,309.164 L242.202,310.101 L241.067,310.101 L241.067,300.025 M245.76,308.453 C246.09,307.925 246.255,307.227 246.255,306.362 C246.255,305.591 246.09,304.953 245.76,304.447 C245.429,303.942 244.943,303.689 244.3,303.689 C243.74,303.689 243.249,303.896 242.827,304.311 C242.406,304.725 242.195,305.409 242.195,306.362 C242.195,307.05 242.281,307.608 242.455,308.036 C242.778,308.843 243.382,309.246 244.266,309.246 C244.932,309.246 245.429,308.982 245.76,308.453 Z" style="stroke:none;fill-rule:nonzero;fill:#000000;fill-opacity:1;"/>
        </g>
        <g id="Shape17">
            <desc shapeID="17" type="0" basicInfo-basicType="0" basicInfo-roundedRectRadius="12" basicInfo-polygonSides="6" basicInfo-starPoints="5" bounding="rect(-0.104492,-5.22495,0.209,10.4499)" text="" font-familyName="Helvetica" font-pixelSize="14" font-bold="0" font-underline="1" font-alignment="1" strokeStyle="0" markerStart="0" markerEnd="0" shadowEnabled="0" shadowOffsetX="0" shadowOffsetY="2" shadowBlur="4" shadowOpacity="160" blurEnabled="0" blurRadius="4" transform="matrix(1,0,0,1,223.418,146.612)" pers-center="0,0" pers-size="0,0" pers-start="0,0" pers-end="0,0" locked="0" mesh="" flag=""/>
            <path id="shapePath17" d="M223.314,141.387 C223.314,141.387 223.523,151.837 223.523,151.837 " style="stroke:none;fill-rule:evenodd;fill:#000000;fill-opacity:1;"/>
        </g>
        <g id="Shape18">
            <desc shapeID="18" type="0" basicInfo-basicType="0" basicInfo-roundedRectRadius="12" basicInfo-polygonSides="6" basicInfo-starPoints="5" bounding="rect(-10.9724,0,21.9447,0)" text="" font-familyName="Helvetica" font-pixelSize="14" font-bold="0" font-underline="1" font-alignment="1" strokeStyle="0" markerStart="0" markerEnd="0" shadowEnabled="0" shadowOffsetX="0" shadowOffsetY="2" shadowBlur="4" shadowOpacity="160" blurEnabled="0" blurRadius="4" transform="matrix(1,0,0,1,234.913,141.387)" pers-center="0,0" pers-size="0,0" pers-start="0,0" pers-end="0,0" locked="0" mesh="" flag=""/>
            <path id="shapePath18" d="M223.941,141.387 L245.886,141.387 " style="stroke:none;fill-rule:evenodd;fill:#000000;fill-opacity:1;"/>
        </g>
        <g id="Shape19">
            <desc shapeID="19" type="0" basicInfo-basicType="0" basicInfo-roundedRectRadius="12" basicInfo-polygonSides="6" basicInfo-starPoints="5" bounding="rect(-4.17995,-0.466132,8.35989,0.932259)" text="" font-familyName="Helvetica" font-pixelSize="20" font-bold="0" font-underline="0" font-alignment="1" strokeStyle="0" markerStart="0" markerEnd="0" shadowEnabled="0" shadowOffsetX="0" shadowOffsetY="2" shadowBlur="4" shadowOpacity="160" blurEnabled="0" blurRadius="4" transform="matrix(1,0,0,1,228.33,136.954)" pers-center="0,0" pers-size="0,0" pers-start="0,0" pers-end="0,0" locked="0" mesh="" flag=""/>
            <path id="shapePath19" d="M224.15,136.58 C227.089,136.126 229.707,137.508 232.51,137.416 " style="stroke:#323232;stroke-opacity:1;stroke-width:2.5;stroke-linejoin:miter;stroke-miterlimit:2;stroke-linecap:round;fill:none;"/>
        </g>
        <g id="Shape20">
            <desc shapeID="20" type="0" basicInfo-basicType="0" basicInfo-roundedRectRadius="12" basicInfo-polygonSides="6" basicInfo-starPoints="5" bounding="rect(0,0,0,0)" text="" font-familyName="Helvetica" font-pixelSize="20" font-bold="0" font-underline="0" font-alignment="1" strokeStyle="0" markerStart="0" markerEnd="0" shadowEnabled="0" shadowOffsetX="0" shadowOffsetY="2" shadowBlur="4" shadowOpacity="160" blurEnabled="0" blurRadius="4" transform="matrix(1,0,0,1,223.314,141.387)" pers-center="0,0" pers-size="0,0" pers-start="0,0" pers-end="0,0" locked="0" mesh="" flag=""/>
            <path id="shapePath20" d="M223.314,141.387 Z" style="stroke:#323232;stroke-opacity:1;stroke-width:2.5;stroke-linejoin:miter;stroke-miterlimit:2;stroke-linecap:round;fill:none;"/>
        </g>
        <g id="Shape21">
            <desc shapeID="21" type="0" basicInfo-basicType="0" basicInfo-roundedRectRadius="12" basicInfo-polygonSides="6" basicInfo-starPoints="5" bounding="rect(0,0,0,0)" text="" font-familyName="Helvetica" font-pixelSize="20" font-bold="0" font-underline="0" font-alignment="1" strokeStyle="0" markerStart="0" markerEnd="0" shadowEnabled="0" shadowOffsetX="0" shadowOffsetY="2" shadowBlur="4" shadowOpacity="160" blurEnabled="0" blurRadius="4" transform="matrix(1,0,0,1,223.105,141.178)" pers-center="0,0" pers-size="0,0" pers-start="0,0" pers-end="0,0" locked="0" mesh="" flag=""/>
            <path id="shapePath21" d="M223.105,141.178 Z" style="stroke:#323232;stroke-opacity:1;stroke-width:2.5;stroke-linejoin:miter;stroke-miterlimit:2;stroke-linecap:round;fill:none;"/>
        </g>
        <g id="Shape22">
            <desc shapeID="22" type="0" basicInfo-basicType="0" basicInfo-roundedRectRadius="12" basicInfo-polygonSides="6" basicInfo-starPoints="5" bounding="rect(-0.542068,-4.59795,1.08414,9.19589)" text="" font-familyName="Helvetica" font-pixelSize="20" font-bold="0" font-underline="0" font-alignment="1" strokeStyle="0" markerStart="0" markerEnd="0" shadowEnabled="0" shadowOffsetX="0" shadowOffsetY="2" shadowBlur="4" shadowOpacity="160" blurEnabled="0" blurRadius="4" transform="matrix(1,0,0,1,222.602,141.805)" pers-center="0,0" pers-size="0,0" pers-start="0,0" pers-end="0,0" locked="0" mesh="" flag=""/>
            <path id="shapePath22" d="M223.105,137.207 C223.35,140.325 222.379,143.349 222.06,146.403 " style="stroke:#323232;stroke-opacity:1;stroke-width:2.5;stroke-linejoin:miter;stroke-miterlimit:2;stroke-linecap:round;fill:none;"/>
        </g>
    </g>
</svg>
